<?xml version="1.0" encoding="UTF-8"?>
<svg id="Layer_1" xmlns="http://www.w3.org/2000/svg" version="1.1" viewBox="0 0 447.25 173.65">
  <defs>
    <style>
      .st0 {
        fill: #ef3e5e;
      }
    </style>
  </defs>
  <g>
    <path class="st0" d="M128.29,165.41l-.14-.65.36-1.74-.14-1.89-.22-1.16.44-.58,4.28-.07.51-.15.65-1.09.36-4.5v-3.63l-.15-6.24v-18.73l-.07-1.16v-.94l-.58-.51-3.05-.22-1.38.22-.58-.15-.15-2.03-.65.07v-.44l.29-.15.22.36.36-.58-.22-2.9.29-.36,9.15.15,4.86-.15h11.33l7.04.29,2.32.58,1.81-.15,2.69.87,2.54,1.52,2.32,1.52,1.31,1.89.36,1.09.58,2.54.07,3.05-.44,2.54-1.02,2.11-1.31,1.67-1.96,1.74-1.96.73-1.02.65-1.96.29-.65.44.29.65,3.34.65,1.45.44,2.03.87.87.8,1.96,1.31,1.89,2.03v.58l1.16,2.47.14,3.48-.29,1.89-.8,2.76-.51,1.09-1.45,1.52-2.03,1.74-1.31.73-2.47,1.45-1.6.44-3.63.73-4.14.29-9-.15-19.17.15-2.76.07-.51-.15ZM144.12,139.2l-.15-.51-.44-.15-.14.22v.51l.51.15.22-.22ZM144.12,144.79l.36-.44-.58-.8-.51-.07v.65l.14.65h.58ZM143.9,146.1l.58-.44-.36-.44h-.44l-.29.44.14.44h.36ZM157.48,158.73l2.9-.58,1.45-.73,1.16-1.02.87-1.52.51-2.76v-.73l-.07-.73-.51-2.25-.07-.87-1.96-2.32-2.32-1.23-2.47-.36-5.95-.15-1.09.29-1.45-.58h-.44l-.51.51-.29,4.65v1.89l.07.51v3.92l-.07,3.41.36.73,7.99.22,1.89-.29ZM156.46,136.88l1.52-.15,1.6-.73.87-1.09,1.02-1.45.58-1.09.07-1.31v-1.31l-.29-1.16.22-.94-.58-1.74-1.31-1.74-1.74-.8-1.16-.58-1.96-.29h-3.05l-.94.29-.94-.07-1.16-.07-.87-.07-.87.07-.15.44.07,2.47.14,2.18v9.22l.22.36h6.32l2.4-.44ZM168.73,152.27l.07-.65-.44-.44h-.44l-.29.44.44.73.65-.07ZM169.53,152.63l-.44-.15h-.14v.29l.07.36.51.07v-.58Z"/>
    <path class="st0" d="M198.2,166.64l-2.54-.44h-1.02l-1.16-.58-2.11-.73-1.38-1.02-1.23-.58-1.74-1.09-1.45-.87-1.67-1.74-1.45-1.6-1.6-2.18-1.96-4.57v-.29l-.87-2.18-.58-3.48.22-.29-.58-6.39.44-2.98,1.16-5.44,2.11-4.21,1.09-1.74,1.74-1.82,1.74-1.89,1.96-1.31,3.05-1.89,6.1-2.11,2.03-.15,1.52-.44h6.32l.87.44,1.67.29,1.45.44,3.05,1.02,1.45.51.36,1.02.51.29h.94l1.09.58,2.76,2.76,1.74,1.96,1.45,2.11,1.6,2.54.58,1.16.94,3.48.22,1.16.36,3.7v2.83l.07,2.03-.36,4.57-.73,1.16-.51,2.18-.29,1.02-.44.73-1.23,2.98-.72,1.02-1.6,2.32-1.67,1.45-2.25,2.11h-.51v-.44l-.36-.22-.22.44.15.51-.8.15-.8.94-1.45.15-.51.58-1.81.58-1.16.22-.8.94-1.16.36-.8-.51-2.18.22-1.74.44-5.3-.22ZM204.08,159.96l1.16-.29,1.81-.58.94-1.16,1.6-.58,1.09-.94,1.02-2.4.51-1.23.44-2.69.36-2.9.29-1.74v-7.77l-.36-1.45-.07-2.4-.36-1.74-.29-1.96-.8-1.09.29-.36-.73-1.52-1.67-2.32-.65-1.09-1.09-.73-1.6-.73-1.45-.36-1.31-.44-.51.07h-.51l-2.47.36-.87.29-1.31.36-1.23.94-.87.44-1.09,1.67-1.89,3.92v.58l-.58,1.09-.07,2.69-.07,3.27-.44,1.81-.15,3.99.29,5.23,1.74,5.01.73,1.6,1.16,1.89.36.36,3.7,2.47,2.61.22.65.36,1.67-.14ZM218.31,155.68l-.15-.44h-.29l-.22.44.29.22.36-.22Z"/>
    <path class="st0" d="M256.35,114.88l2.54.44h1.02l1.16.58,2.11.73,1.38,1.02,1.23.58,1.74,1.09,1.45.87,1.67,1.74,1.45,1.6,1.6,2.18,1.96,4.57v.29l.87,2.18.58,3.48-.22.29.58,6.39-.44,2.98-1.16,5.44-2.11,4.21-1.09,1.74-1.74,1.82-1.74,1.89-1.96,1.31-3.05,1.89-6.1,2.11-2.03.15-1.52.44h-6.32l-.87-.44-1.67-.29-1.45-.44-3.05-1.02-1.45-.51-.36-1.02-.51-.29h-.95l-1.09-.58-2.76-2.76-1.74-1.96-1.45-2.11-1.6-2.54-.58-1.16-.95-3.48-.22-1.16-.36-3.7v-2.83l-.07-2.03.36-4.57.72-1.16.51-2.18.29-1.02.44-.73,1.23-2.98.73-1.02,1.6-2.32,1.67-1.45,2.25-2.11h.51l.44-.29.8-.15.8-.94,1.45-.15.51-.58,1.81-.58,1.16-.22.8-.94,1.16-.36.8.51,2.18-.22,1.74-.44,5.3.22ZM250.47,121.56l-1.16.29-1.81.58-.94,1.16-1.6.58-1.09.94-1.02,2.4-.51,1.23-.44,2.69-.36,2.9-.29,1.74v7.77l.36,1.45.07,2.4.36,1.74.29,1.96.51,1.45.73,1.52,1.67,2.32.65,1.09,1.09.73,1.6.73,1.45.36,1.31.44.51-.07h.51l2.47-.36.87-.29,1.31-.36,1.23-.94.87-.44,1.09-1.67,1.89-3.92v-.58l.58-1.09.07-2.69.07-3.27.44-1.81.15-3.99-.29-5.23-1.74-5.01-.73-1.6-1.16-1.89-.36-.36-2.07-2.33-4.25-.35-.65-.36-1.67.14ZM273.31,133.01l.41.2.2-.21-.16-.46-.36.06-.1.41Z"/>
    <path class="st0" d="M275.44,165.34l.22-2.47-.07-1.67v-1.6l.22-.36,1.09.15,1.96.07,1.02.22.94-.14.36-.44.22-3.78-.07-23.6.29-3.34-.22-2.4.07-2.18v-1.09l-.65-.58h-.29l-2.32.15-1.81.22-.65-.29-.22-.44.14-1.67-.14-1.67.14-2.1.29-.36,1.81.15,15.32.15,1.16.29.73-.29,3.92-.15.8-.22.65.58-.29,2.25v3.63l-.58.36-1.52-.22-2.61-.29-.73.36-.29.94.07,2.25.15,2.47-.22,2.32.07,2.9-.07,2.69-.22,1.45-.36,2.25.29.29.65-.15.8-1.23,2.61-3.12,1.09-1.16,2.32-2.18,6.1-5.81.51-.51,3.27-2.98-.07-.8-.72-.36-1.02.44-3.99.22-.29-.36-.14-2.69-.07-2.32.36-.87.51-.07.44.07.51.15,6.9-.29,5.01-.07,4.79.07,4.36-.22.51.36.14,2.69.07,2.61-1.02.8-.87-.44-2.54-.15-1.02.36-2.47,1.96-3.34,3.19-1.02.73-1.89,1.81-1.74,1.52-1.53,1.67-2.39,1.6v.8l1.09,1.02,1.67,2.18,2.03,3.05,1.74,2.47,1.6,2.32.8.65,1.38,2.03.36.8.94,1.31,1.67,2.54,2.54,3.2.51,1.23.87.73.95.36,3.41-.07.51.22v5.23l-.14.36-1.16.51h-5.52l-1.38-.29-14.23.14-2.98.29-.36-.65.07-3.34.07-1.16v-1.09l.58-.58,2.9.58,1.16.07.73-.36.07-.8-.44-.87-1.02-.94-2.98-4.72-2.32-3.19-2.76-4.14-.58-1.38-.58-.58h-.44l-1.38,1.45-1.23,1.6-2.03,1.6-.58.65.29,5.66-.22,5.23.14.65.65.29,1.38-.36,1.02.36,1.23-.14.73.8v2.61l.36.87v1.16l-.58.65-5.01-.14-15.32.14-2.9.15-.72-.44ZM285.53,138.33l-.22-.44h-.29l-.22.44.36.36.36-.36ZM288.07,132.81l-.44-.36-.36.29.14.51.44.07.22-.51ZM292.79,143.19l-.15-.44h-.72l.07.65.58.15.22-.36Z"/>
    <path class="st0" d="M326.69,165.05l-.07-1.38v-1.45l.29-2.54.36-.36h4.07l.87-.44.44-.94-.14-1.6-.15-2.9-.14-2.03.29-2.25v-2.54l.07-2.54-.07-2.98v-7.84l.07-5.08.22-.29v-2.11l-.29-2.11-.44-.73-.87-.51-2.83-.29-1.23.36-.65-.36.22-1.82v-3.77l.65-.44h27.95l4.79-.22,9.73-.07,1.74.22.22.58.44,6.61.58,7.7.36,4.21.14.22-.22.58-.94.29-2.69-.36-3.41.29-.51-.65v-2.69l-.44-1.89v-2.32l-1.02-2.03v-.44l-2.03-1.96-2.18-1.02-1.31-.29-1.96-.36h-6.97l-3.48.07-.29.29-.36,4.86.51.94-.07.8-.15.73-.07,3.7-.07,3.34.36.36,3.63-.15,1.38-.58,1.02-1.16.29-1.09v-1.67l-.07-2.03.8-1.45.44-.22,2.11.29h1.23l1.67-.36.51.65-.07,11.47.22,5.81-.14,1.6v1.6l-.07,1.6-.44.29-2.03-.22-4.07-.07-.22-.07-.14-.44.44-2.47v-3.41l-.36-.36h-.58l-1.53-1.6-.73-.22-1.67.36-1.6.07-.36,1.02-.07,3.48.22,3.63v4.21l-.29,2.25.36.51,6.54.07,2.83.36,2.76-.36,2.54-.51,1.16-.36.8-.73,1.45-1.67.44-2.25.44-2.11.44-2.76.36-2.11.51-.73h4.29l2.54-.29.65.29-.07.65-.07.58-.44,2.9-.36,1.45-.15,1.02-.07,1.09-.51,3.34-.29,4.72v3.48l-.14.51h-44.36l-.44-.44Z"/>
    <path class="st0" d="M373.95,165.55l-.29-1.02.14-.22.14-4.65.65-.51.58.15,2.83.22,1.02-.65.51-1.23.07-4.36v-4.72l.29-9.87v-12.56l-.44-1.6v-1.67l-.44-.65-4.57.22-.58-.58v-2.03l.07-1.67-.22-1.81.36-.51,2.9.29h16.77l.29.22,8.71.22,2.76.58h.94l1.23.65h1.31l1.09-.22,1.67,1.16,2.61.8,1.23.8,5.23,4.5,1.89,3.78,1.45,3.48.51,2.03.44,2.47.29,5.59-.07,3.05-.87,3.85-1.09,3.99-1.52,2.4-1.31,1.6-3.05,2.9h-.36l-1.96,1.89h-.22l-2.83,1.38-3.2,1.09-3.7,1.02-3.05-.07-2.61.22-8.06-.15-15.03.07-1.96.36-.58-.22ZM396.16,159.24l3.56-.22,2.98-.44.8-.15,1.67-.8,1.74-1.02,1.96-2.03,1.02-2.47.29-1.09.51-1.74.36-1.74.29-4.07v-6.9l-.22-1.74-.36-2.18-.58-2.61-.58-1.45-1.53-2.47-.94-.94-1.67-1.16-2.11-.94-2.54-.44-3.92.07-3.92-.07-.36.44.07,1.02v1.02l-.22,9.15.22,3.7.14,3.63-.22,3.63v11.18l.22,2.32.22.51h3.12Z"/>
  </g>
  <g>
    <path class="st0" d="M151.67,109.45l-.14-.65.36-1.74-.14-1.89-.22-1.16.44-.58,4.28-.07.51-.15.65-1.09.36-4.5v-3.63l-.15-6.24v-18.73l-.07-1.16v-.94l-.58-.51-3.05-.22-1.38.22-.58-.15-.15-2.03-.65.07v-.44l.29-.15.22.36.36-.58-.22-2.9.29-.36,9.15.15,4.86-.15h11.33l7.04.29,2.32.58,1.81-.15,2.69.87,2.54,1.53,2.32,1.52,1.31,1.89.36,1.09.58,2.54.07,3.05-.44,2.54-1.02,2.11-1.31,1.67-1.96,1.74-1.96.73-1.02.65-1.96.29-.65.44.29.65,3.34.65,1.45.44,2.03.87.87.8,1.96,1.31,1.89,2.03v.58l1.16,2.47.14,3.48-.29,1.89-.8,2.76-.51,1.09-1.45,1.52-2.03,1.74-1.31.73-2.47,1.45-1.6.44-3.63.73-4.14.29-9-.14-19.17.14-2.76.07-.51-.15ZM193.34,67.73l-.46-.26-.41.21.05.26.36.36.46-.26v-.31ZM172.09,104.69l.51.25.64-.75-.05-.51-.64.15-.6.29.14.57ZM180.85,102.77l2.9-.58,1.45-.73,1.16-1.02.87-1.52.51-2.76v-.73l-.07-.73-.51-2.25-.07-.87-1.96-2.32-2.32-1.23-2.47-.36-5.95-.15-1.09.29-1.45-.58h-.44l-.51.51-.29,4.65v1.89l.07.51v3.92l-.07,3.41.36.73,7.99.22,1.89-.29ZM179.84,80.91l1.52-.15,1.6-.73.87-1.09,1.02-1.45.58-1.09.07-1.31v-1.31l-.29-1.16.22-.94-.58-1.74-1.31-1.74-1.74-.8-1.16-.58-1.96-.29h-3.05l-.94.29-.94-.07-1.16-.07-.87-.07-.87.07-.15.44.07,2.47.14,2.18v9.22l.22.36h6.32l2.4-.44ZM154.47,63.23l-.55-.37-.59.19-.2.39.25.46.84-.05.24-.61ZM155.16,62.69l-.33.32-.07.13.26.13.36.1.3-.42-.52-.27Z"/>
    <path class="st0" d="M213.66,109.59l-11.04-.07-4.65.15-.73-.36-.07-3.7v-1.45l1.02-.94,3.48.22.94-.58.51-.73.44-1.89,1.31-2.9v-.36l.73-1.52,1.02-2.76.65-2.03,1.09-2.9,1.74-4.36.58-.87,1.89-5.37,1.31-3.34,1.6-4.65,1.74-4.21,1.16-3.34.44-1.09.58-.58.58.07.51.07,11.04-.15.51.22.29,1.23.65,2.4,2.03,4.94.44,1.52,1.02,2.54.22.73.94,1.89v.44l.94,1.89.58,2.03.58,1.45,1.45,3.78,1.45,4.5,2.61,7.12.73,1.74.29.58,1.16,2.76.29.8,1.09.94h4.36l.36.36-.36,1.09.22,4.21-.44.36-4.14.15-6.68-.29-2.76.15-8.28.07-1.81-.22-1.31.44-.58-.58.22-3.2-.07-.87v-.87l-.15-.51.15-.58h.73l.8.36h3.12l1.45-.73-.14-1.23-1.31-2.47.14-1.89-.29-.51h-2.54l-1.6-.07h-2.03l-6.39.22-5.52-.15-.8.29-.87,2.25-.87,2.03-.07.8-.07.73,1.23.73h2.18l1.67-.29.73.15.29.73v4.65l-.51,1.02-3.19-.14ZM228.84,90.5l.44-.29-.36-1.96-.87-1.53-.87-2.03v-.65l-1.02-3.85-.44-1.16-.8-1.89-.51-1.89-.8-1.45-.51-2.9-.36-.07h-.44l-.65.94-.15,1.53-1.31,3.7-1.02,3.12-.73,1.45v.44l-1.89,5.3-1.16,2.25v.73l.51.29,4.94-.29h.44l4.65.22.36.22,2.54-.22Z"/>
    <path class="st0" d="M295.91,109.59l-13.79-.07-.44-.44-1.23-3.05-.8-1.45v-.22l-3.99-8.13-1.31-2.03-2.4-4.57v-.15l-1.09-2.4-4.57-9.22-.73-1.16-1.09-2.03-.29-1.67-.58-.73h-.44l-.44.65.29,2.54-.07,2.76-.07,2.69v13.5l-.36,1.96.15,2.03.15,2.11.07,2.11.51.65,1.16.73,1.31-.58h3.41l.51.36v5.88h-1.6l-7.55-.36-12.2.22-.8-1.16.58-1.09v-3.41l.44-.36h5.01l.51-.44.44-.87v-7.77l.07-2.83-.07-3.7-.07-3.63.29-5.81v-.58l-.22-9.58-.29-1.16-.8-.87h-1.6l-1.74.29-1.6-.44-.07-.36.07-2.03.15-2.47.15-.65,1.23-.87h.15l.87.44,2.03.29.8-.15,11.76-.15,5.08-.29.65.15,1.09,2.69.51.87,1.09,2.32,1.23,2.4.36.94,2.25,4.14.36.73.44,1.74.44.44,1.74,3.19.58,1.45,1.09,1.96.65,1.31.29.44,2.11,4.65,1.31,1.89,1.16,2.32,1.09,2.9.94.15.87-.94-.07-.65-.07-.73-.51-3.92-.14-3.92.14-.65v-9.29l-.14-1.09-.07-5.08-.07-1.31-.07-1.23-.51-1.16-.44-.22-5.66.07-.51-.44-.07-1.96-.07-1.31v-.58l.29-1.6.44-.29,8.2.15,2.32-.22.73.44.65.36,2.11-.44.8.22,1.23-.58,1.96.15,1.67-.44.58.15.58.65.29.65-.36,1.38.07,1.6v1.89l-.36.22-3.78-.07-1.6.94-.44,1.09.22,3.99-.15,3.05v19.53l.07,1.96.07,1.89-.15,8.42.29,2.03-.73.58-1.89-.22ZM273.7,76.48v-.51l-.36-.36h-.22l-.29.36v.36l.36.29.51-.15Z"/>
    <path class="st0" d="M302.52,59.86l1.96.36,15.03.07,8.06-.14,2.61.22,3.05-.07,3.7,1.02,3.2,1.09,2.83,1.38h.22l1.96,1.89h.36l3.05,2.9,1.31,1.6,1.52,2.4,1.09,3.99.87,3.85.07,3.05-.29,5.59-.44,2.47-.51,2.03-1.45,3.48-1.89,3.78-5.23,4.5-1.23.8-2.61.8-1.67,1.16-1.09-.22h-1.31l-1.23.65h-.94l-2.76.58-8.71.22-.29.22h-16.77l-2.9.29-.36-.51.22-1.81-.07-1.67v-2.03l.58-.58,4.57.22.44-.65v-1.67l.44-1.6v-12.56l-.29-9.87v-4.72l-.07-4.36-.51-1.23-1.02-.65-2.83.22-.58.15-.65-.51-.14-4.65-.14-.22.29-1.02.58-.22ZM321.03,66.39l-.22.51-.22,2.32v11.18l.22,3.63-.14,3.63-.22,3.7.22,9.15v1.02l-.07,1.02.36.44,3.92-.07,3.92.07,2.54-.44,2.11-.94,1.67-1.16.94-.94,1.53-2.47.58-1.45.58-2.61.36-2.18.22-1.74v-6.9l-.29-4.07-.36-1.74-.51-1.74-.29-1.09-1.02-2.47-1.96-2.03-1.74-1.02-1.67-.8-.8-.15-2.98-.44-3.56-.22h-3.12Z"/>
  </g>
  <g>
    <path class="st0" d="M121.43,20.74c-10.26-5.87-22-9.22-34.9-9.97-3.38-.2-6.82-.29-10.51-.29s-7.79.1-12.75.31c-10.95.47-21.84,3.21-32.36,8.15-8.51,4-15.1,11.04-18.57,19.82-3.41,8.64-3.64,18.46-.66,27.64,5.19,15.98,12.04,31.63,20.36,46.52,8.2,14.69,17.9,28.75,28.82,41.8,1.63,1.95,3.22,3.53,5,4.97,2.62,2.12,5.68,3.24,8.86,3.24,4.43,0,8.8-2.14,12-5.87,11.5-13.42,21.63-28.01,30.11-43.35,8.55-15.47,15.48-31.84,20.62-48.65,2.47-8.07,2.24-17.02-.62-25.19-2.92-8.33-8.39-15.12-15.41-19.14ZM74,87.86c-16.44,0-29.77-13.33-29.77-29.77s13.33-29.77,29.77-29.77,29.77,13.33,29.77,29.77-13.33,29.77-29.77,29.77Z"/>
    <path class="st0" d="M124.9,16.6c-11.49-6.57-24.38-10-37.65-10.77-8.36-.49-16.28-.34-24.62.02-12.2.52-23.86,3.61-34.85,8.77C7.89,23.96-.4,46.63,6.33,67.37c11.11,34.18,28.96,65.84,51.98,93.34,1.77,2.11,3.53,3.88,5.58,5.54,8.16,6.61,18.85,4.49,25.33-3.06,24.33-28.39,42.68-61.39,53.63-97.26,5.56-18.2-1.4-39.87-17.94-49.33ZM139.74,65.76c-10.46,34.24-27.98,65.76-51.2,92.86-3.64,4.25-8.69,6.7-13.81,6.7-3.57,0-7.17-1.19-10.37-3.77-1.96-1.58-3.64-3.28-5.32-5.29-21.97-26.26-39.02-56.48-49.62-89.12-6.43-19.79,1.49-41.44,20.48-50.36,10.49-4.93,21.62-7.88,33.27-8.38,4.36-.19,8.6-.31,12.85-.31,3.52,0,7.04.09,10.65.3,12.67.74,24.98,4.01,35.95,10.29,15.79,9.03,22.43,29.72,17.13,47.1Z"/>
  </g>
</svg>
