<?xml version="1.0" encoding="UTF-8"?>
<svg id="Layer_1" xmlns="http://www.w3.org/2000/svg" version="1.1" viewBox="0 0 447.25 173.65">
  <!-- Generator: Adobe Illustrator 30.4.0, SVG Export Plug-In . SVG Version: 2.1.3 Build 42)  -->
  <defs>
    <style>
      .st0 {
        fill: #ef3e5e;
      }
    </style>
  </defs>
  <g>
    <path class="st0" d="M195.92,118.3l-8.14-1.43-7.92-4.18-3.96-2.86-1.43-1.87-2.64-3.08-.88-1.32-1.98-3.19-1.21-2.09-1.76-3.74-.66-2.53-.66-3.3-.66-5.28v-9.24l.44-1.1v-1.87l.66-3.52,1.1-2.53.44-2.86,4.29-8.36,1.54-1.32,2.09-2.53,1.1-.44,3.19-3.63,2.31-.77,1.98-1.43,4.18-1.98,4.73-1.32,3.63-.44h2.42l1.65-.88h1.54l2.86.66,4.4,1.21,4.4,1.87,3.3,1.65,2.31,1.43,1.87,2.86h.77l.77-.88.22-1.65-.44-1.54.11-2.75.55-.33,9.57-.22.66.55-.22,1.43-.11,1.43v20.78l.44,4.95-.55.33-3.96-.33h-6.27l-.77-.77-.22-1.54-.11-1.65-1.21-3.96-2.42-4.84-2.2-2.31-1.54-1.76-2.2-1.43-4.51-1.87h-3.08l-5.61.66-1.32,1.43-2.97,1.87-1.87,1.1-1.54,2.2-1.43,1.98v.33l-1.54,3.63-.66,2.2-.88,2.53-.44,4.07v9.79l.22,3.74.22,3.85,1.32,5.5.99,2.64,2.42,3.41.99,1.43,2.09,1.87,1.32.99,3.74,1.43,5.72-.11,3.52-.99,2.42-1.21,2.75-2.64,1.43-2.86.99-2.86v-6.16l-.44-1.1-1.21-.77-3.52-.33-4.73.66-.66-.55v-8.8l.77-.33,17.59.33,14.73-.33,2.09.11.88,1.54v4.18l.11,3.19-1.1.66-2.64-.99-1.98.22-1.65,1.76v3.41l-.33,2.2.33,1.87.22,5.83.22,4.62-.44,2.97,1.1,3.63v1.54l-.77.44-10.34.11-.55-.99.44-7.15-.22-.55-.77-.22-.88.44-1.21,1.98-2.75,2.31-1.76,1.43-3.41,1.65-1.65.88-2.42.88-4.29.55-5.28.77-3.19-.11Z"/>
    <path class="st0" d="M273.77,116.87l-9.68-.22-1.54-.44-24.52.22-.44-.99.22-3.96.11-3.41.66-.66,5.61-.11,1.87-1.76.55-2.53-.11-7.92.44-8.25-.33-25.73.22-8.8-.77-1.54-7.59-.11-.66-.33v-7.92l.44-.55,1.21-.22,1.65-1.21h.22l1.21.66.66.77,5.17-.22h25.51l1.1.77.22,2.97.11,2.64-.44,1.65-.66,1.1-5.83-.11-.99.55-.77,1.1.22,1.1.11,1.1-.44,2.31v26.72l-.11,5.61-.22,5.5.33,3.85.11,1.32-.33,2.31.66,3.41.88.88,2.31.55,4.62.22.55.44.11,3.96.11,4.84-.88.55-.88-.11Z"/>
    <path class="st0" d="M304.22,118.3l-8.14-1.43-7.92-4.18-3.96-2.86-1.43-1.87-2.64-3.08-.88-1.32-1.98-3.19-1.21-2.09-1.76-3.74-.66-2.53-.66-3.3-.66-5.28v-9.24l.44-1.1v-1.87l.66-3.52,1.1-2.53.44-2.86,4.29-8.36,1.54-1.32,2.09-2.53,1.1-.44,3.19-3.63,2.31-.77,1.98-1.43,4.18-1.98,4.73-1.32,3.63-.44h2.42l1.65-.88h1.54l2.86.66,4.4,1.21,4.4,1.87,3.3,1.65,2.31,1.43,1.87,2.86h.77l.77-.88.22-1.65-.44-1.54.11-2.75.55-.33,9.57-.22.66.55-.22,1.43-.11,1.43v20.78l.44,4.95-.55.33-3.96-.33h-6.27l-.77-.77-.22-1.54-.11-1.65-1.21-3.96-2.42-4.84-2.2-2.31-1.54-1.76-2.2-1.43-4.51-1.87h-3.08l-5.61.66-1.32,1.43-2.97,1.87-1.87,1.1-1.54,2.2-1.43,1.98v.33l-1.54,3.63-.66,2.2-.88,2.53-.44,4.07v9.79l.22,3.74.22,3.85,1.32,5.5.99,2.64,2.42,3.41.99,1.43,2.09,1.87,1.32.99,3.74,1.43,5.72-.11,3.52-.99,2.42-1.21,2.75-2.64,1.43-2.86.99-2.86v-6.16l-.44-1.1-1.21-.77-3.52-.33-4.73.66-.66-.55v-8.8l.77-.33,17.59.33,14.73-.33,2.09.11.88,1.54v4.18l.11,3.19-1.1.66-2.64-.99-1.98.22-1.65,1.76v3.41l-.33,2.2.33,1.87.22,5.83.22,4.62-.44,2.97,1.1,3.63v1.54l-.77.44-10.34.11-.55-.99.44-7.15-.22-.55-.77-.22-.88.44-1.21,1.98-2.75,2.31-1.76,1.43-3.41,1.65-1.65.88-2.42.88-4.29.55-5.28.77-3.19-.11Z"/>
    <path class="st0" d="M417.69,116.43l-20.89-.11-.66-.66-1.87-4.62-1.21-2.2v-.33l-6.05-12.32-1.98-3.08-3.63-6.93v-.22l-1.65-3.63-6.93-13.96-1.1-1.76-1.65-3.08-.44-2.53-.88-1.1h-.66l-.66.99.44,3.85-.11,4.18-.11,4.07v20.45l-.55,2.97.22,3.08.22,3.19.11,3.19.77.99,1.76,1.1,1.98-.88h5.17l.77.55v8.91h-2.42l-11.44-.55-18.47.33-1.21-1.76.88-1.65v-5.17l.66-.55h7.59l.77-.66.66-1.32v-11.77l.11-4.29-.11-5.61-.11-5.5.44-8.8v-.88l-.33-14.51-.44-1.76-1.21-1.32h-2.42l-2.64.44-2.42-.66-.11-.55.11-3.08.22-3.74.22-.99,1.87-1.32h.22l1.32.66,3.08.44,1.21-.22,17.81-.22,7.7-.44.99.22,1.65,4.07.77,1.32,1.65,3.52,1.87,3.63.55,1.43,3.41,6.27.55,1.1.66,2.64.66.66,2.64,4.84.88,2.2,1.65,2.97.99,1.98.44.66,3.19,7.04,1.98,2.86,1.76,3.52,1.65,4.4,1.43.22,1.32-1.43-.11-.99-.11-1.1-.77-5.94-.22-5.94.22-.99v-14.07l-.22-1.65-.11-7.7-.11-1.98-.11-1.87-.77-1.76-.66-.33-8.58.11-.77-.66-.11-2.97-.11-1.98v-.88l.44-2.42.66-.44,12.42.22,3.52-.33,1.1.66.99.55,3.19-.66,1.21.33,1.87-.88,2.97.22,2.53-.66.88.22.88.99.44.99-.55,2.09.11,2.42v2.86l-.55.33-5.72-.11-2.42,1.43-.66,1.65.33,6.05-.22,4.62v29.58l.11,2.97.11,2.86-.22,12.75.44,3.08-1.1.88-2.86-.33ZM384.05,66.29v-.77l-.55-.55h-.33l-.44.55v.55l.55.44.77-.22Z"/>
  </g>
  <g>
    <path class="st0" d="M179.06,170.02l-4.79-.18-4.24-.27-3.25.45-.9-.54-.81-2.26-.99-1.26-.45-1.81-.27-.36-.45-1.54-1.99-3.79v-.72l-.63-1.99-1.63-3.43-.27-1.08-1.08-3.61-.81-1.17-2.35-5.06-.72-.9-1.26-4.06-.27-1.63-1.26-1.17-.72-.54-3.52.54-.63-.36.18-4.34-.36-1.26v-1.63l.81-.72.27.09.36.18,2.8.27,1.63-.18.45.45,12.55.09,5.87-.09,2.71-.45.63.81-.18,3.79.54,1.72v.9l-.54.45h-5.15l-.72.45.18,1.17,1.26,4.33.9,1.81.27,2.71,2.89,5.87,1.54,4.88.9,3.52.18.36h.81l.54-.63.45-1.44.81-3.07.99-2.89,1.35-3.07.45-2.26.72-1.26,1.26-2.53,2.35-6.59v-.99l-.45-.63-.99-.36-.63.18-.63.54-.99.18-.63-.54-2.26.18-.27-.63-.18-5.51-.27-.81.63-.63.9.27,5.06.36,8.76-.18,1.63-.45,4.88-.09.54.81-.27.99v5.87l-.45.45-2.89-.45-1.54.63-1.35,1.54-.45,1.54-2.62,6.95-2.8,5.87-.9,2.89-1.44,3.61-2.26,4.88-1.54,3.52-.27.36-1.9,3.7.54.99-.18.54-.36.45-.81-.72Z"/>
    <path class="st0" d="M220.42,170.11l-2.08-.72h-.99l-1.81-.54-2.35-.99-2.17-1.26-.72-.63-1.44-.72-1.54-1.54-1.63-2.44-1.17-2.17-1.63-4.24-.09-1.99-.18-1.9-.36-2.71.45-6.23.36-2.17.9-2.53.54-1.26,2.53-4.06,4.52-3.97,4.34-2.17,1.99-.54,4.97-.9.9-.18,2.17.09,2.17-.27,4.15.54,3.79,1.26,2.98,1.35,2.17,1.45,2.53,2.35,1.63,2.53,1.35,1.99.99,2.17,1.08,5.51-.09,4.7v.9l.09.81-.81.72-25.29-.18-3.52-.36-.54.18-.27.72.45,2.89.63,1.08.18,1.35.9,1.9,2.35,2.35,1.63.99,2.89.81,4.24-.27,3.07-1.17,1.72-1.26,1.54-2.53.72-2.17,4.34.09,3.79-.09.81.54v.63l-.72,2.35-1.08,2.35-2.08,2.89-3.97,3.79-3.34,1.63-2.26.9-4.24.54-4.52.18-4.97-.36ZM220.33,142.83l6.23-.18,5.69.09.72-.63-.36-4.97-.9-2.71-.45-1.08-2.71-1.26-1.63-.09h-1.63l-1.54.45-2.53,1.54-.9,1.17-.54,1.08-.45,3.97-.36,2.17.45.72.9-.27ZM241.11,144.19v-.54l-.54-.18-.36.45.27.45.63-.18Z"/>
    <path class="st0" d="M255.92,169.3l-.63-.27-.09-2.98v-2.89l-.27-1.17.72-.9,1.27.54,3.25.18,2.08-.99.18-.81-.45-.9-.27-8.13-.09-7.5-.09-4.15v-3.7l-.81-1.72-.45-.36-1.44-.18-2.17.54h-.72l-.72-.54.09-3.25v-3.7l.18-.54,1.17-.45,2.17.54h4.97l1.26-.45,1.35.54,7.5-.27,2.8-.18.54.81-.72,4.24-.09,1.45v1.54l.63.54h.27l.63-.27,1.36-2.98,1.44-1.99,2.26-2.17,4.88-1.9,4.52-.36,1.44-.27.9.18.99.45,3.43.72,4.24,2.8,1.17,1.63,1.72,3.7.9,5.42.09,3.79.18,3.88-.09,3.79-.18,7.22-.81.63.72.63,1.44,2.89.81.18,2.35-.63h1.08l.63.99-.45,1.35v3.61l.72.9v.81l-.45.27-18.15-.27-8.67.36-.36-.36.09-6.77.36-.63,3.34.18,1.54-1.17.18-.72.18-9.48-.18-4.24-.09-4.88-1.08-3.34-.99-1.26-.9-1.35-.9-.45-3.52-.54-1.72.72-1.72.99-1.44,1.35v.36l-1.27,2.17-.54,2.26v10.21l-.27,6.23.63,2.53.72.9,1.17-.27h1.72l1.17.99.27,1.35.18,2.53.09,1.9-.18.99-27-.45ZM273.35,154.76l.45-.72v-.45l-.54-.54h-.54l-.63.36-1.17-.54h-.27l-.45.18-.36.99.54.81,2.98-.09Z"/>
    <path class="st0" d="M331.33,170.2l-3.07-1.54-1.9-1.35-1.36-1.44-.99-2.17-.27-.54-.81-2.89-.54-.81-.45-2.17.36-1.08-.45-.81-.09-9.3.36-11.11-.18-1.17-.54-.45-3.97-.09-.99.36-.45-.54.18-6.32.45-.81,4.88.09,12.82-.27,2.17-.27h.54l.63-.09.36.45v4.97l-.36,10.84-.27,6.14.45,8.13.99,2.08.72.81,1.54.9,3.61.45,1.99-.27,1.44-.63.72-.9,1.17-1.72.9-1.9.72-2.89.18-4.06.18-4.15.18-3.43-.18-2.53-.09-2.53-.63-1.17-.81-.45-3.79.18-.72-.72.27-2.89v-4.24l.54-.45h.81l4.34.36,9.3.27h3.43l1.99-.27.63.54.09,30.62.45,3.7.36.72,1.08.54h1.26l1.36-.54,1.99.63.45.72-.36,4.61.09,1.72-.45.45-15.81.09-4.34.54-.9-.36-.27-1.81.63-6.23v-1.26l-.18-.63h-.9l-.63,1.17-.99,2.98-2.44,2.44-1.08.99-2.53,1.54-1.9,1.08-3.79.9h-3.61l-3.52-.72ZM328.62,141.75l-.09-.81h-.45l-.36-.09-.27.63.54.45.63-.18ZM331.87,141.03v-.72h-.27l-.27.27v.45h.54ZM334.58,137.05v-.63l-.45-.45h-.54l-.27.27v.54l.54.45.72-.18ZM357.16,134.7l-.09-.45-.09-.36-.27-.09h-.27l-.27.54.27.36h.72ZM357.61,130.01l.27-.63-.63-.81h-.63l-.27.18v.81l.45.45h.81Z"/>
    <path class="st0" d="M396.27,170.11l-2.08-.72h-.99l-1.81-.54-2.35-.99-2.17-1.26-.72-.63-1.44-.72-1.54-1.54-1.63-2.44-1.17-2.17-1.63-4.24-.09-1.99-.18-1.9-.36-2.71.45-6.23.36-2.17.9-2.53.54-1.26,2.53-4.06,4.52-3.97,4.34-2.17,1.99-.54,4.97-.9.9-.18,2.17.09,2.17-.27,4.15.54,3.79,1.26,2.98,1.35,2.17,1.45,2.53,2.35,1.63,2.53,1.35,1.99.99,2.17,1.08,5.51-.09,4.7v.9l.09.81-.81.72-25.29-.18-3.52-.36-.54.18-.27.72.45,2.89.63,1.08.18,1.35.9,1.9,2.35,2.35,1.63.99,2.89.81,4.24-.27,3.07-1.17,1.72-1.26,1.54-2.53.72-2.17,4.34.09,3.79-.09.81.54v.63l-.72,2.35-1.08,2.35-2.08,2.89-3.97,3.79-3.34,1.63-2.26.9-4.24.54-4.52.18-4.97-.36ZM396.18,142.83l6.23-.18,5.69.09.72-.63-.36-4.97-.9-2.71-.45-1.08-2.71-1.26-1.63-.09h-1.63l-1.54.45-2.53,1.54-.9,1.17-.54,1.08-.45,3.97-.36,2.17.45.72.9-.27ZM416.95,144.19v-.54l-.54-.18-.36.45.27.45.63-.18Z"/>
  </g>
  <g>
    <path class="st0" d="M135.22,18.14c-10.39-5.94-22.27-9.34-35.34-10.1-3.42-.2-6.9-.3-10.64-.3s-7.89.1-12.91.31c-11.09.47-22.11,3.25-32.76,8.25-8.62,4.05-15.29,11.18-18.8,20.07-3.45,8.75-3.69,18.69-.66,27.99,5.26,16.18,12.19,32.03,20.62,47.1,8.31,14.87,18.12,29.11,29.18,42.32,1.65,1.97,3.26,3.57,5.06,5.03,2.65,2.15,5.75,3.28,8.97,3.28,4.49,0,8.91-2.16,12.15-5.94,11.65-13.59,21.9-28.36,30.49-43.89,8.65-15.66,15.68-32.23,20.88-49.26,2.5-8.17,2.27-17.23-.63-25.5-2.96-8.43-8.5-15.31-15.6-19.38ZM87.21,86.1c-16.65,0-30.14-13.49-30.14-30.14s13.49-30.14,30.14-30.14,30.14,13.49,30.14,30.14-13.49,30.14-30.14,30.14Z"/>
    <path class="st0" d="M138.74,13.95c-11.63-6.65-24.68-10.13-38.12-10.91-8.46-.49-16.49-.34-24.92.02-12.35.53-24.16,3.66-35.28,8.88-20.14,9.47-28.54,32.42-21.72,53.41,11.25,34.61,29.33,66.67,52.63,94.51,1.79,2.14,3.57,3.93,5.65,5.61,8.26,6.69,19.09,4.55,25.64-3.1,24.63-28.74,43.21-62.16,54.3-98.48,5.63-18.43-1.42-40.37-18.16-49.95ZM153.77,63.73c-10.59,34.67-28.33,66.58-51.84,94.02-3.69,4.31-8.8,6.78-13.98,6.78-3.61,0-7.26-1.2-10.5-3.82-1.98-1.6-3.68-3.32-5.39-5.36-22.24-26.58-39.5-57.19-50.24-90.23-6.51-20.04,1.51-41.96,20.74-50.99,10.62-4.99,21.89-7.98,33.69-8.48,4.41-.19,8.7-.32,13.01-.32,3.56,0,7.13.09,10.78.3,12.83.75,25.29,4.06,36.4,10.41,15.99,9.15,22.71,30.09,17.34,47.68Z"/>
  </g>
</svg>